<!DOCTYPE svg PUBLIC "-//W3C//DTD SVG 20010904//EN" "http://www.w3.org/TR/2001/REC-SVG-20010904/DTD/svg10.dtd">
<svg version="1.0" xmlns="http://www.w3.org/2000/svg" width="369px" height="391px" viewBox="0 0 3690 3910" preserveAspectRatio="xMidYMid meet">
<g id="layer101" fill="#e3a020" stroke="none">
 <path d="M2642 3840 c-200 -53 -325 -187 -356 -381 -8 -55 -14 -68 -25 -64 -43 17 -190 27 -306 22 -379 -18 -758 -185 -1044 -461 -86 -83 -173 -185 -229 -268 l-32 -47 -48 24 c-74 37 -129 48 -232 47 -111 -1 -208 -26 -285 -75 l-50 -32 83 -7 c46 -4 106 -15 135 -24 70 -23 157 -110 198 -197 l30 -64 -41 -119 c-101 -295 -120 -419 -85 -559 49 -193 196 -358 374 -421 178 -63 424 2 575 152 74 73 116 143 147 245 26 85 29 176 15 444 l-9 170 37 32 c55 49 130 67 240 58 50 -4 108 -13 129 -20 43 -15 46 -7 16 41 -52 85 -195 172 -321 196 -77 14 -76 10 -31 128 88 227 253 408 504 553 46 26 226 107 239 107 4 0 12 -26 19 -57 27 -124 109 -241 207 -299 64 -38 150 -63 252 -75 114 -14 115 -13 106 86 -15 156 -63 266 -156 350 l-59 52 23 15 c100 66 175 209 193 370 10 92 5 98 -73 97 -37 0 -100 -9 -140 -19z m-442 -489 c-187 -38 -381 -111 -516 -193 -208 -125 -400 -314 -532 -523 -94 -150 -183 -386 -212 -565 -18 -113 -20 -114 -14 -5 25 459 279 873 689 1122 171 103 424 178 615 180 54 1 54 1 -30 -16z m-1526 -1840 c34 -36 48 -107 22 -117 -29 -11 -64 5 -85 40 -20 32 -28 86 -14 99 15 16 51 5 77 -22z m544 -13 c4 -48 -47 -111 -87 -106 -22 3 -26 9 -29 40 -4 48 47 111 87 106 22 -3 26 -9 29 -40z"/>
 <path d="M2630 2704 c-152 -40 -309 -155 -377 -274 -76 -133 -88 -240 -69 -585 l9 -160 -36 -32 c-57 -50 -124 -67 -231 -59 -85 6 -124 13 -169 31 -18 7 -18 6 1 -31 48 -94 195 -189 332 -215 36 -7 66 -14 68 -14 1 -1 -7 -31 -19 -66 -82 -250 -253 -448 -520 -602 -46 -26 -226 -107 -239 -107 -4 0 -14 30 -23 66 -24 97 -55 151 -122 220 -90 91 -194 132 -372 149 l-73 6 0 -53 c1 -147 64 -302 160 -391 l59 -55 -24 -16 c-108 -71 -195 -259 -195 -421 l0 -45 68 0 c87 0 206 30 283 71 67 36 139 110 174 179 26 52 55 154 55 195 0 21 4 25 19 20 97 -31 313 -33 477 -5 422 72 817 320 1074 674 l61 85 32 -19 c138 -80 386 -69 532 23 l50 32 -45 3 c-80 4 -172 23 -209 42 -67 34 -141 122 -174 208 l-17 42 59 178 c74 222 85 278 78 396 -8 137 -58 256 -156 366 -132 151 -334 214 -521 164z m-82 -226 c2 -29 -3 -43 -29 -73 -53 -60 -104 -37 -85 39 9 37 56 77 85 74 22 -3 26 -9 29 -40z m482 6 c25 -29 30 -43 28 -72 -3 -31 -7 -37 -29 -40 -36 -4 -89 56 -89 102 0 18 3 36 7 39 17 17 53 4 83 -29z m-325 -794 c-21 -122 -75 -286 -129 -393 -216 -423 -669 -728 -1119 -752 l-92 -5 110 24 c423 93 757 319 996 672 54 81 146 265 174 349 22 68 64 235 67 265 1 14 3 4 5 -22 2 -27 -3 -89 -12 -138z"/>
 </g>

</svg>